<?xml version="1.0" encoding="UTF-8"?>
<svg id="Camada_1" xmlns="http://www.w3.org/2000/svg" version="1.1" viewBox="0 0 760 176" role="img" aria-labelledby="title desc">
  <title id="title">Baseforma</title>
  <desc id="desc">Logotipo horizontal Baseforma.</desc>
  <defs>
    <style>
      .icon-dark { fill: #181c1d; }
      .icon-accent { fill: #007a70; }
      .logo-text { fill: #181c1d; }
      .logo-forma { fill: #007a70; }
    </style>
  </defs>
  <g aria-label="Ícone Baseforma">
    <path class="icon-dark" d="M90.93,141.29h-57.33c-2.79,0-5.06-2.27-5.06-5.06v-11.63c0-1.54.69-2.97,1.89-3.94l.15-.11,26.7-17.71c.57-.49.89-1.19.89-1.94v-43.4c0-.66-.25-1.28-.7-1.76l-6.93-5.93c-1.24-1.24-1.92-2.89-1.92-4.64v-5.88c0-2.79,2.27-5.06,5.06-5.06h22.39c2.79,0,5.06,2.26,5.06,5.06v78.84c0,.58.47,1.06,1.06,1.06h8.75c1.1,0,2,.9,2,2s-.9,2-2,2h-8.75c-2.79,0-5.06-2.27-5.06-5.06V39.29c0-.58-.47-1.06-1.06-1.06h-22.39c-.58,0-1.06.47-1.06,1.06v5.88c0,.66.25,1.28.7,1.76l6.93,5.93c1.24,1.24,1.92,2.89,1.92,4.64v43.4c0,2-.89,3.86-2.44,5.11l-.15.11-26.69,17.71c-.22.2-.34.48-.34.78v11.63c0,.58.47,1.06,1.06,1.06h57.33c1.1,0,2,.9,2,2s-.9,2-2,2Z"/>
    <path class="icon-dark" d="M164.26,141.29h-57.33c-1.1,0-2-.9-2-2s.9-2,2-2h57.33c.58,0,1.06-.47,1.06-1.06v-11.63c0-.3-.12-.58-.34-.78l-26.84-17.82c-1.55-1.25-2.44-3.11-2.44-5.11v-43.4c0-1.75.68-3.4,1.92-4.64l.11-.11,6.81-5.82c.45-.48.7-1.1.7-1.76v-5.88c0-.58-.47-1.06-1.06-1.06h-22.39c-.58,0-1.06.47-1.06,1.06v78.84c0,2.79-2.27,5.06-5.06,5.06h-8.74c-1.1,0-2-.9-2-2s.9-2,2-2h8.75c.58,0,1.06-.47,1.06-1.06V39.29c0-2.79,2.27-5.06,5.06-5.06h22.39c2.79,0,5.06,2.26,5.06,5.06v5.88c0,1.75-.68,3.4-1.92,4.64l-.11.11-6.81,5.82c-.45.48-.7,1.1-.7,1.76v43.4c0,.75.32,1.46.89,1.94l26.85,17.82c1.2.97,1.89,2.4,1.89,3.94v11.63c0,2.79-2.27,5.06-5.06,5.06h-.02Z"/>
    <g class="icon-accent">
      <path d="M98.93,26.51c.69,0,1.25.56,1.25,1.25v2.5c0,.69-.56,1.25-1.25,1.25s-1.25-.56-1.25-1.25v-2.5c0-.69.56-1.25,1.25-1.25Z"/>
      <path d="M98.93,134.22c-.69,0-1.25-.56-1.25-1.25v-7.77c0-.69.56-1.25,1.25-1.25s1.25.56,1.25,1.25v7.77c0,.69-.56,1.25-1.25,1.25ZM98.93,113.67c-.69,0-1.25-.56-1.25-1.25v-7.77c0-.69.56-1.25,1.25-1.25s1.25.56,1.25,1.25v7.77c0,.69-.56,1.25-1.25,1.25ZM98.93,93.13c-.69,0-1.25-.56-1.25-1.25v-7.77c0-.69.56-1.25,1.25-1.25s1.25.56,1.25,1.25v7.77c0,.69-.56,1.25-1.25,1.25ZM98.93,72.59c-.69,0-1.25-.56-1.25-1.25v-7.77c0-.69.56-1.25,1.25-1.25s1.25.56-1.25,1.25v7.77c0,.69-.56,1.25-1.25,1.25ZM98.93,52.05c-.69,0-1.25-.56-1.25-1.25v-7.77c0-.69.56-1.25,1.25-1.25s1.25.56,1.25,1.25v7.77c0,.69-.56,1.25-1.25,1.25Z"/>
      <path d="M98.93,144.49c.69,0,1.25.56,1.25,1.25v2.5c0,.69-.56,1.25-1.25,1.25s-1.25-.56-1.25-1.25v-2.5c0-.69.56-1.25,1.25-1.25Z"/>
    </g>
  </g>
  <g transform="translate(175 0)">
    <g class="logo-text">
      <path d="M32.51,30.47h32.83c15.88,0,25.48,8.31,25.48,21.85,0,8.42-3.84,14.6-10.98,17.7,7.78,2.56,11.94,8.63,11.94,17.59,0,13.96-9.38,21.75-26.44,21.75h-32.83V30.47ZM49.77,45.6v17.16h13.75c6.18,0,9.59-3.09,9.59-8.74s-3.3-8.42-9.59-8.42h-13.75ZM49.77,77.26v16.95h14.6c6.4,0,9.7-2.88,9.7-8.74,0-5.33-3.41-8.21-9.7-8.21h-14.6Z"/>
      <path d="M99.13,93.68c0-9.81,6.93-15.88,19.72-16.84l14.92-1.17v-.85c0-5.22-3.2-8-9.06-8-6.93,0-10.66,2.67-10.66,7.46h-13.64c0-12.05,9.91-19.93,25.16-19.93s24.2,8.63,24.2,23.88v31.13h-14.5l-1.07-7.04c-1.71,4.9-8.74,8.42-16.74,8.42-11.3,0-18.33-6.61-18.33-17.06ZM133.88,89.42v-2.88l-8.31.75c-7.14.64-9.7,2.24-9.7,5.65,0,3.84,2.35,5.65,7.35,5.65,6.29,0,10.66-3.09,10.66-9.17Z"/>
      <path d="M173.21,92.51c.21,3.73,2.98,5.97,7.99,5.97s7.46-1.81,7.46-4.58c0-1.6-.85-3.3-4.8-4.16l-9.81-2.13c-9.81-2.13-14.6-6.4-14.6-15.78,0-11.09,9.49-17.48,22.28-17.48s21,7.25,21,18.02h-15.56c0-3.62-2.24-6.08-6.18-6.08-3.73,0-6.08,1.92-6.08,4.8,0,2.45,2.03,3.84,5.76,4.69l9.91,2.13c8.74,1.92,13.54,5.97,13.54,14.5,0,11.41-9.7,18.33-23.56,18.33s-22.92-7.46-22.92-18.23h15.56Z"/>
      <path d="M209.78,82.59c0-16.63,11.19-28.25,27.29-28.25s27.18,10.98,27.18,28.35v4.16l-38.69.21c.96,7.04,4.9,10.34,12.15,10.34,6.18,0,10.55-2.24,11.73-6.08h15.03c-1.92,11.83-12.47,19.4-27.08,19.4-16.1,0-27.61-11.73-27.61-28.14ZM225.77,76.94h22.17c0-5.65-4.16-9.27-10.77-9.27s-10.13,2.88-11.41,9.27Z"/>
    </g>
    <g class="logo-forma">
      <path d="M287.11,75.77v33.58h-7.68V33.03h44.98v7.04h-37.31v28.78h31.23v6.93h-31.23Z"/>
      <path d="M354.27,56.37c15.14,0,26.22,11.41,26.22,27.18s-11.09,27.08-26.22,27.08-26.22-11.41-26.22-27.08,11.09-27.18,26.22-27.18ZM354.27,104.02c10.98,0,18.76-8.42,18.76-20.57s-7.78-20.47-18.76-20.47-18.76,8.53-18.76,20.47,7.67,20.57,18.76,20.57Z"/>
      <path d="M419.19,63.73h-4.05c-9.49,0-15.56,6.4-15.56,16.2v29.42h-7.36v-51.59h6.93l.53,7.99c2.03-5.54,7.46-9.17,14.71-9.17,1.6,0,2.98.11,4.8.53v6.61Z"/>
      <path d="M428.99,109.35v-51.59h6.4l.85,7.35c2.56-5.44,8.31-8.74,15.56-8.74,8.1,0,14.18,4.26,16.63,10.98,2.35-6.72,8.63-10.98,16.95-10.98,11.19,0,18.55,7.25,18.55,19.19v33.79h-7.14v-32.3c0-8.85-4.9-14.07-12.79-14.07-8.63,0-13.75,6.5-13.75,14.5v31.87h-7.25v-32.41c0-8.74-5.01-13.86-12.79-13.86-8.63,0-13.86,6.4-13.86,14.28v31.98h-7.36Z"/>
      <path d="M516.08,95.39c0-9.49,7.25-15.46,19.29-16.42l17.06-1.39v-1.71c0-10.13-6.08-13.32-13.64-13.32-8.95,0-14.28,4.05-14.28,10.98h-6.72c0-10.45,8.53-17.16,21.21-17.16,11.94,0,20.68,5.97,20.68,19.61v33.37h-6.18l-.96-9.06c-3.2,6.5-10.23,10.34-18.97,10.34-10.98,0-17.48-6.18-17.48-15.24ZM552.43,85.9v-2.77l-15.24,1.17c-9.7.85-13.64,5.12-13.64,10.87,0,6.29,4.69,9.49,11.73,9.49,10.87,0,17.16-7.57,17.16-18.76Z"/>
    </g>
  </g>
</svg>
