<?xml version="1.0" encoding="UTF-8"?>
<svg id="Camada_1" data-name="Camada 1" xmlns="http://www.w3.org/2000/svg" viewBox="0 0 512 240">
  <defs>
    <style>
      .cls-1, .cls-2 {
        fill: #0a6963;
      }

      .cls-2, .cls-3, .cls-4 {
        isolation: isolate;
      }

      .cls-2, .cls-4 {
        font-family: ArialMT, Arial;
        font-size: 86.54px;
      }

      .cls-5 {
        letter-spacing: 0em;
      }

      .cls-6 {
        letter-spacing: -.04em;
      }

      .cls-7, .cls-4 {
        fill: #1d1d1b;
      }
    </style>
  </defs>
  <g>
    <g class="cls-3">
      <text class="cls-4" transform="translate(49.98 202.85)"><tspan class="cls-6" x="0" y="0">T</tspan><tspan class="cls-5" x="49.65" y="0">raço</tspan></text>
    </g>
    <g class="cls-3">
      <text class="cls-2" transform="translate(264.77 202.85)"><tspan x="0" y="0">Base</tspan></text>
    </g>
  </g>
  <g>
    <path class="cls-7" d="M247.99,123.84h-57.33c-2.79,0-5.06-2.27-5.06-5.06v-11.63c0-1.54.69-2.97,1.89-3.94l.15-.11,26.7-17.71c.57-.49.89-1.19.89-1.94v-43.4c0-.66-.25-1.28-.7-1.76l-6.93-5.93c-1.24-1.24-1.92-2.89-1.92-4.64v-5.88c0-2.79,2.27-5.06,5.06-5.06h22.39c2.79,0,5.06,2.26,5.06,5.06v78.84c0,.58.47,1.06,1.06,1.06h8.75c1.1,0,2,.9,2,2h0c0,1.1-.9,2-2,2h-8.75c-2.79,0-5.06-2.27-5.06-5.06V21.84c0-.58-.47-1.06-1.06-1.06h-22.39c-.58,0-1.06.47-1.06,1.06v5.88c0,.66.25,1.28.7,1.76l6.93,5.93c1.24,1.24,1.92,2.89,1.92,4.64v43.4c0,2-.89,3.86-2.44,5.11l-.15.11-26.69,17.71c-.22.2-.34.48-.34.78v11.63c0,.58.47,1.06,1.06,1.06h57.33c1.1,0,2,.9,2,2h0c0,1.1-.9,2-2,2h-.01Z"/>
    <path class="cls-7" d="M321.32,123.84h-57.33c-1.1,0-2-.9-2-2h0c0-1.1.9-2,2-2h57.33c.58,0,1.06-.47,1.06-1.06v-11.63c0-.3-.12-.58-.34-.78l-26.84-17.82c-1.55-1.25-2.44-3.11-2.44-5.11v-43.4c0-1.75.68-3.4,1.92-4.64l.11-.11,6.81-5.82c.45-.48.7-1.1.7-1.76v-5.88c0-.58-.47-1.06-1.06-1.06h-22.39c-.58,0-1.06.47-1.06,1.06v78.84c0,2.79-2.27,5.06-5.06,5.06h-8.74c-1.1,0-2-.9-2-2h0c0-1.1.9-2,2-2h8.75c.58,0,1.06-.47,1.06-1.06V21.83c0-2.79,2.27-5.06,5.06-5.06h22.39c2.79,0,5.06,2.26,5.06,5.06v5.88c0,1.75-.68,3.4-1.92,4.64l-.11.11-6.81,5.82c-.45.48-.7,1.1-.7,1.76v43.4c0,.75.32,1.46.89,1.94l26.85,17.82c1.2.97,1.89,2.4,1.89,3.94v11.63c0,2.79-2.27,5.06-5.06,5.06h-.02Z"/>
    <g>
      <path class="cls-1" d="M255.99,9.05h0c.69,0,1.25.56,1.25,1.25v2.5c0,.69-.56,1.25-1.25,1.25h0c-.69,0-1.25-.56-1.25-1.25v-2.5c0-.69.56-1.25,1.25-1.25Z"/>
      <path class="cls-1" d="M255.99,116.76h0c-.69,0-1.25-.56-1.25-1.25v-7.77c0-.69.56-1.25,1.25-1.25h0c.69,0,1.25.56,1.25,1.25v7.77c0,.69-.56,1.25-1.25,1.25ZM255.99,96.22h0c-.69,0-1.25-.56-1.25-1.25v-7.77c0-.69.56-1.25,1.25-1.25h0c.69,0,1.25.56,1.25,1.25v7.77c0,.69-.56,1.25-1.25,1.25ZM255.99,75.68h0c-.69,0-1.25-.56-1.25-1.25v-7.77c0-.69.56-1.25,1.25-1.25h0c.69,0,1.25.56,1.25,1.25v7.77c0,.69-.56,1.25-1.25,1.25ZM255.99,55.14h0c-.69,0-1.25-.56-1.25-1.25v-7.77c0-.69.56-1.25,1.25-1.25h0c.69,0,1.25.56,1.25,1.25v7.77c0,.69-.56,1.25-1.25,1.25ZM255.99,34.59h0c-.69,0-1.25-.56-1.25-1.25v-7.77c0-.69.56-1.25,1.25-1.25h0c.69,0,1.25.56,1.25,1.25v7.77c0,.69-.56,1.25-1.25,1.25Z"/>
      <path class="cls-1" d="M255.99,127.03h0c.69,0,1.25.56,1.25,1.25v2.5c0,.69-.56,1.25-1.25,1.25h0c-.69,0-1.25-.56-1.25-1.25v-2.5c0-.69.56-1.25,1.25-1.25Z"/>
    </g>
  </g>
</svg>