<svg width="96" height="96" viewBox="0 0 96 96" fill="none" xmlns="http://www.w3.org/2000/svg" role="img" aria-labelledby="title desc">
  <title id="title">Marca Traço Base</title>
  <desc id="desc">Símbolo geométrico com grade paramétrica, traço vertical e base em TPU.</desc>
  <rect x="6" y="6" width="84" height="84" rx="12" fill="#181c1d"/>
  <path d="M18 18h60M18 34h60M18 50h60M18 66h60M30 18v60M48 18v60M66 18v60" stroke="#5a6264" stroke-width="1" opacity=".32"/>
  <path d="M24 69h48v8H24v-8Z" fill="#c76345"/>
  <path d="M26 28h44v34H26V28Z" fill="#f5f7f4"/>
  <path d="M35 38h26v16H35V38Z" fill="#202629"/>
  <path d="M44 20h8v58h-8V20Z" fill="#007a70"/>
  <path d="M62 34h8v36h-8V34Z" fill="#7f9488"/>
  <circle cx="26" cy="28" r="3" fill="#2c6b9a"/>
  <circle cx="70" cy="62" r="3" fill="#2c6b9a"/>
</svg>
