<svg width="512" height="128" viewBox="0 0 512 128" fill="none" xmlns="http://www.w3.org/2000/svg" role="img" aria-labelledby="title desc">
  <title id="title">Traço Base</title>
  <desc id="desc">Logotipo Traço Base para sapatas 3D sob demanda.</desc>
  <rect x="16" y="16" width="96" height="96" rx="14" fill="#181c1d"/>
  <path d="M30 30h68M30 48h68M30 66h68M30 84h68M44 30v68M64 30v68M84 30v68" stroke="#5a6264" stroke-width="1.2" opacity=".32"/>
  <path d="M36 86h56v8H36v-8Z" fill="#c76345"/>
  <path d="M40 44h48v36H40V44Z" fill="#f5f7f4"/>
  <path d="M50 56h28v14H50V56Z" fill="#202629"/>
  <path d="M60 32h8v62h-8V32Z" fill="#007a70"/>
  <path d="M80 48h8v38h-8V48Z" fill="#7f9488"/>
  <circle cx="40" cy="44" r="3.5" fill="#2c6b9a"/>
  <circle cx="88" cy="80" r="3.5" fill="#2c6b9a"/>
  <text x="144" y="70" fill="#181c1d" font-family="Arial, Helvetica, sans-serif" font-size="44" font-weight="700" letter-spacing="0">Traço Base</text>
  <text x="146" y="96" fill="#5a6264" font-family="Arial, Helvetica, sans-serif" font-size="16" font-weight="700" letter-spacing="0">Sapatas 3D sob demanda para mobiliário</text>
  <path d="M145 31h326v6H145v-6Z" fill="#007a70"/>
  <path d="M475 31h18v6h-18v-6Z" fill="#c76345"/>
</svg>
